<svg width="20" height="20" viewBox="0 0 20 20" fill="none" xmlns="http://www.w3.org/2000/svg">
<g clip-path="url(#clip0_539_4245)">
<rect width="20" height="20" rx="10" fill="white"/>
<path d="M10.875 12.0332H9.125L8.94727 5.10156H11.0527L10.875 12.0332ZM10.0137 15.123C9.80404 15.123 9.61035 15.0706 9.43262 14.9658C9.25488 14.861 9.11361 14.722 9.00879 14.5488C8.90853 14.3711 8.86068 14.1797 8.86523 13.9746C8.86068 13.7695 8.90853 13.5804 9.00879 13.4072C9.11361 13.234 9.25488 13.0973 9.43262 12.9971C9.61035 12.8923 9.80404 12.8398 10.0137 12.8398C10.2096 12.8398 10.3942 12.8923 10.5674 12.9971C10.7451 13.0973 10.8864 13.234 10.9912 13.4072C11.096 13.5804 11.1484 13.7695 11.1484 13.9746C11.1484 14.1797 11.096 14.3711 10.9912 14.5488C10.8864 14.722 10.7451 14.861 10.5674 14.9658C10.3942 15.0706 10.2096 15.123 10.0137 15.123Z" fill="#1A1A1A"/>
</g>
<rect x="0.5" y="0.5" width="19" height="19" rx="9.5" stroke="#1A1A1A"/>
<defs>
<clipPath id="clip0_539_4245">
<rect width="20" height="20" rx="10" fill="white"/>
</clipPath>
</defs>
</svg>
