<svg width="32" height="32" viewBox="0 0 32 32" fill="none" xmlns="http://www.w3.org/2000/svg">
<rect x="32" width="32" height="32" rx="16" transform="rotate(90 32 0)" fill="#FF7474"/>
<path d="M22.4904 10.3125L21.9541 19.0845C21.8171 21.3256 21.7486 22.4462 21.193 23.2519C20.9183 23.6502 20.5647 23.9864 20.1545 24.239C19.3249 24.75 18.2145 24.75 15.9937 24.75C13.77 24.75 12.6582 24.75 11.8281 24.238C11.4176 23.985 11.0639 23.6482 10.7893 23.2492C10.2339 22.4423 10.1669 21.3201 10.0329 19.0758L9.50964 10.3125" stroke="white" stroke-width="1.5" stroke-linecap="round"/>
<path d="M8.21155 10.3125H23.7885M19.5098 10.3125L18.919 9.08026C18.5266 8.26173 18.3303 7.85246 17.9919 7.59721C17.9168 7.54059 17.8373 7.49022 17.7541 7.44661C17.3793 7.25 16.9295 7.25 16.0299 7.25C15.1076 7.25 14.6465 7.25 14.2655 7.45485C14.1811 7.50026 14.1005 7.55266 14.0246 7.61152C13.6822 7.87711 13.4909 8.30136 13.1084 9.14985L12.5843 10.3125" stroke="white" stroke-width="1.5" stroke-linecap="round"/>
<path d="M13.8365 19.9375V14.6875" stroke="white" stroke-width="1.5" stroke-linecap="round"/>
<path d="M18.1635 19.9375V14.6875" stroke="white" stroke-width="1.5" stroke-linecap="round"/>
</svg>
