<svg width="32" height="32" viewBox="0 0 32 32" fill="none" xmlns="http://www.w3.org/2000/svg">
<circle cx="16" cy="16" r="16" fill="#F4F5F6"/>
<path d="M17.0553 9.91409C17.6142 9.30856 17.8936 9.0058 18.1906 8.8292C18.907 8.40307 19.7893 8.38982 20.5178 8.79424C20.8197 8.96185 21.1077 9.25609 21.6838 9.84457C22.2598 10.433 22.5479 10.7273 22.7119 11.0357C23.1079 11.7798 23.0949 12.6811 22.6777 13.413C22.5049 13.7164 22.2085 14.0018 21.6157 14.5728L14.563 21.3657C13.4397 22.4477 12.878 22.9887 12.176 23.2628C11.4741 23.537 10.7024 23.5168 9.15902 23.4764L8.94904 23.471C8.47918 23.4587 8.24425 23.4525 8.10769 23.2975C7.97113 23.1425 7.98977 22.9032 8.02706 22.4247L8.04731 22.1648C8.15226 20.8176 8.20473 20.1441 8.46778 19.5387C8.73083 18.9332 9.18458 18.4416 10.0921 17.4584L17.0553 9.91409Z" stroke="#77828D" stroke-width="1.5" stroke-linejoin="round"/>
<path d="M16.25 10L21.5 15.25" stroke="#77828D" stroke-width="1.5" stroke-linejoin="round"/>
<path d="M17 23.5H23" stroke="#77828D" stroke-width="1.5" stroke-linecap="round" stroke-linejoin="round"/>
</svg>
