<svg width="32" height="32" viewBox="0 0 32 32" fill="none" xmlns="http://www.w3.org/2000/svg">
<rect x="32" width="32" height="32" rx="16" transform="rotate(90 32 0)" fill="#F4F5F6"/>
<path d="M22.4903 10.3125L21.954 19.0845C21.8169 21.3256 21.7485 22.4462 21.1929 23.2519C20.9181 23.6502 20.5645 23.9864 20.1544 24.239C19.3248 24.75 18.2144 24.75 15.9936 24.75C13.7699 24.75 12.6581 24.75 11.8279 24.238C11.4175 23.985 11.0638 23.6482 10.7891 23.2492C10.2337 22.4423 10.1667 21.3201 10.0327 19.0758L9.50952 10.3125" stroke="#77828D" stroke-width="1.5" stroke-linecap="round"/>
<path d="M8.21143 10.3125H23.7883M19.5096 10.3125L18.9189 9.08026C18.5265 8.26173 18.3302 7.85246 17.9917 7.59721C17.9167 7.54059 17.8372 7.49022 17.754 7.44661C17.3792 7.25 16.9294 7.25 16.0297 7.25C15.1075 7.25 14.6464 7.25 14.2654 7.45485C14.1809 7.50026 14.1004 7.55266 14.0245 7.61152C13.6821 7.87711 13.4908 8.30136 13.1083 9.14985L12.5841 10.3125" stroke="#77828D" stroke-width="1.5" stroke-linecap="round"/>
<path d="M13.8364 19.9375V14.6875" stroke="#77828D" stroke-width="1.5" stroke-linecap="round"/>
<path d="M18.1636 19.9375V14.6875" stroke="#77828D" stroke-width="1.5" stroke-linecap="round"/>
</svg>
