<svg width="24" height="24" viewBox="0 0 24 24" fill="none" xmlns="http://www.w3.org/2000/svg">
<g clip-path="url(#clip0_2282_1159)">
<path d="M22.7857 12.2534C22.7857 11.5056 22.7251 10.7538 22.5958 10.0182H12.2202V14.2541H18.1618C17.9152 15.6202 17.123 16.8288 15.963 17.5967V20.3452H19.5078C21.5893 18.4294 22.7857 15.6 22.7857 12.2534Z" fill="#4285F4"/>
<path d="M12.22 23.0008C15.1868 23.0008 17.6887 22.0267 19.5116 20.3453L15.9668 17.5968C14.9806 18.2677 13.7074 18.6477 12.2241 18.6477C9.35431 18.6477 6.92109 16.7116 6.04805 14.1086H2.39014V16.942C4.25749 20.6565 8.06091 23.0008 12.22 23.0008Z" fill="#34A853"/>
<path d="M6.04421 14.1086C5.58343 12.7425 5.58343 11.2631 6.04421 9.89696V7.0636H2.39034C0.830173 10.1718 0.830173 13.8338 2.39034 16.942L6.04421 14.1086Z" fill="#FBBC04"/>
<path d="M12.22 5.35385C13.7883 5.3296 15.304 5.91972 16.4397 7.00295L19.5803 3.8624C17.5917 1.99505 14.9523 0.968406 12.22 1.00074C8.06091 1.00074 4.25749 3.34504 2.39014 7.06357L6.044 9.89694C6.91301 7.28992 9.35027 5.35385 12.22 5.35385Z" fill="#EA4335"/>
</g>
<defs>
<clipPath id="clip0_2282_1159">
<rect width="22" height="22" fill="white" transform="translate(1 1)"/>
</clipPath>
</defs>
</svg>
