<svg width="36" height="36" viewBox="0 0 36 36" fill="none" xmlns="http://www.w3.org/2000/svg">
<rect width="36" height="36" fill="white"/>
<circle cx="18" cy="18" r="17.5" fill="white" stroke="#E2E2E2"/>
<path d="M24 18.75C24.4142 18.75 24.75 18.4142 24.75 18C24.75 17.5858 24.4142 17.25 24 17.25V18V18.75ZM12 17.25C11.5858 17.25 11.25 17.5858 11.25 18C11.25 18.4142 11.5858 18.75 12 18.75V18V17.25ZM15.472 23.5327C15.7662 23.8243 16.2411 23.8222 16.5327 23.528C16.8243 23.2338 16.8222 22.7589 16.528 22.4673L16 23L15.472 23.5327ZM14.237 21.2527L14.765 20.72H14.765L14.237 21.2527ZM14.237 14.7473L13.7091 14.2146H13.7091L14.237 14.7473ZM16.528 13.5327C16.8222 13.2411 16.8243 12.7662 16.5327 12.472C16.2411 12.1778 15.7662 12.1757 15.472 12.4673L16 13L16.528 13.5327ZM12.0199 18.3133L11.2759 18.4082L11.2759 18.4082L12.0199 18.3133ZM12.0199 17.6867L11.2759 17.5918L11.2759 17.5918L12.0199 17.6867ZM24 18V17.25H12V18V18.75H24V18ZM16 23L16.528 22.4673L14.765 20.72L14.237 21.2527L13.7091 21.7854L15.472 23.5327L16 23ZM14.237 14.7473L14.765 15.28L16.528 13.5327L16 13L15.472 12.4673L13.7091 14.2146L14.237 14.7473ZM14.237 21.2527L14.765 20.72C14.0495 20.0109 13.5587 19.5228 13.2266 19.1093C12.904 18.7076 12.7933 18.4496 12.7639 18.2185L12.0199 18.3133L11.2759 18.4082C11.3547 19.0263 11.6496 19.5412 12.0571 20.0485C12.455 20.544 13.0186 21.1011 13.7091 21.7854L14.237 21.2527ZM14.237 14.7473L13.7091 14.2146C13.0186 14.8989 12.455 15.456 12.0571 15.9515C11.6496 16.4588 11.3547 16.9737 11.2759 17.5918L12.0199 17.6867L12.7639 17.7815C12.7933 17.5504 12.904 17.2924 13.2266 16.8907C13.5587 16.4772 14.0495 15.9891 14.765 15.28L14.237 14.7473ZM12.0199 18.3133L12.7639 18.2185C12.7454 18.0734 12.7454 17.9266 12.7639 17.7815L12.0199 17.6867L11.2759 17.5918C11.2414 17.8629 11.2414 18.1371 11.2759 18.4082L12.0199 18.3133Z" fill="#1C1C1C"/>
</svg>
