<svg width="61" height="61" viewBox="0 0 61 61" fill="none" xmlns="http://www.w3.org/2000/svg">
<g clip-path="url(#clip0_141_335)">
<path d="M59.9012 16.0137C59.7685 15.6381 58.8238 13.7517 58.6521 14.9953C58.5285 15.8961 58.7261 16.6473 58.295 17.5626C58.1317 17.9092 57.9303 18.1863 57.7006 18.4138C57.4709 18.6413 57.2138 18.8184 56.9376 18.9649C55.9098 19.5092 54.6324 19.6199 53.6306 20.2932C52.8385 20.8261 52.2754 21.6429 51.9923 22.5498C51.9801 22.5903 51.9435 22.6162 51.903 22.6162C51.6596 22.6147 51.5184 22.3605 51.2964 22.2468C50.3113 21.7399 49.3072 21.5963 48.2007 21.7124C46.432 21.8971 45.3233 23.3262 43.4577 21.959C43.3066 21.8483 42.0598 20.41 41.9323 20.9391C41.7874 21.5421 42.072 22.4002 42.2933 22.9537C42.5474 23.5819 42.9052 24.1949 43.3714 24.685C44.0284 25.3774 44.7762 25.9835 45.5888 26.4859C45.849 26.6462 46.1146 26.7866 46.3832 26.9141C46.4992 26.9691 46.6159 27.0225 46.7326 27.0737C47.2721 27.3118 47.8215 27.5195 48.3678 27.7684C48.8646 27.9951 49.3621 28.2203 49.8588 28.4462C50.1144 28.563 50.3693 28.6821 50.6264 28.7959C50.7714 28.8592 51.0087 28.8844 51.0721 29.0486C51.0972 29.1134 51.098 29.1844 51.082 29.2531C50.5769 30.1417 49.871 30.8685 48.9935 31.4029C48.3106 31.8174 47.5689 32.0349 46.8151 32.2685C45.4385 32.696 44.0803 33.0266 42.6267 32.9602C40.945 32.8838 39.2136 32.3517 37.5578 32.0494C35.7242 31.7151 33.8853 31.3639 32.1089 30.7883C28.8828 29.7425 25.6612 28.1813 22.4519 27.2416C21.3714 26.9256 20.0117 26.7958 19.0151 26.3652C18.5955 26.1836 18.2071 25.8377 17.7966 25.6469C16.5963 25.0904 15.2709 25.2927 13.9508 25.0041C10.9872 24.356 6.05714 22.0903 3.10798 22.9048C2.42659 23.0926 1.9596 23.7453 1.72764 23.8132C1.34993 23.9232 1.0699 23.7384 0.598336 24.0041C-0.455426 24.5972 0.139747 26.8943 0.467856 27.8386C1.21259 29.9822 2.61048 30.9708 4.03508 32.5472C6.31276 35.0671 8.37755 37.7436 10.9894 39.9421C12.1203 40.8941 13.3015 41.7216 14.5414 42.4644C14.4735 42.5483 14.4086 42.6346 14.3644 42.7316C14.2423 42.9987 14.2812 43.2972 14.2431 43.5774C14.1958 43.927 14.0218 44.2034 13.8615 44.5057C13.5357 45.1187 13.815 45.6424 13.9974 46.263C14.2164 47.0088 14.1866 47.7089 14.0187 48.46C13.8409 49.2608 14.1126 49.6639 14.4163 50.3761C14.6017 50.8136 14.6826 51.2884 14.7436 51.7571C14.8062 52.2426 14.9405 52.7182 15.0565 53.1961C15.1496 53.5793 15.3663 53.819 15.5669 54.1503C15.7455 54.445 15.9065 54.7496 16.082 55.045C16.4215 55.6176 16.8267 56.1871 17.441 56.4863C17.9278 56.723 18.4634 56.6726 18.7801 56.1886C19.1029 55.6977 18.8206 54.9794 18.861 54.4191C18.9136 53.7045 18.803 53.0014 18.8061 52.2915C18.8083 51.6472 18.9411 51.1052 19.0724 50.4815C19.2021 49.8654 19.3394 49.283 19.5515 48.6883C19.7591 48.1066 20.0109 47.5921 20.0132 46.976C20.0155 46.3439 19.8285 45.8164 19.5989 45.2378C19.5157 45.0294 19.4325 44.821 19.3638 44.6072L21.9986 45.4828C22.2787 46.0401 22.7746 46.4798 23.2378 47.0104C24.1046 48.0043 24.5579 49.1043 24.8341 50.3815C25.1286 51.7434 25.8352 52.1709 26.8096 53.0534C27.4078 53.5954 27.871 54.2702 28.2975 54.9504C28.7401 55.6535 29.2849 56.2917 29.8038 56.9451C30.2204 57.4696 30.7255 57.6856 31.2704 58.0536C31.7549 58.3803 32.2203 58.7353 32.7011 59.0666C33.632 59.7071 34.6628 60.2964 35.8227 60.3201C36.7414 60.3384 37.5311 59.8796 37.6761 58.907C37.8234 57.92 36.8764 57.0138 36.5415 56.1207C36.1134 54.9824 35.4427 53.9771 34.9414 52.8793C34.4866 51.8854 34.305 50.9548 34.0646 49.899C33.8265 48.857 33.6228 47.8608 33.5267 46.7928C33.5 46.4951 33.4824 46.2035 33.4618 45.9164C38.839 45.1759 43.9979 42.6415 47.9985 39.0215C48.3572 38.697 48.6998 38.3558 49.0386 38.01C49.6788 37.3573 50.3052 36.6947 50.9889 36.0924C51.8717 35.3137 52.6249 34.3503 53.1651 33.3029C53.8122 32.0456 54.138 30.6456 54.3242 29.2516C54.3989 28.6928 54.3959 28.1699 54.7553 27.708C55.0613 27.3141 55.4855 27.021 55.8953 26.7454C56.4256 26.3889 57.033 26.0706 57.4603 25.5843C57.9891 24.982 58.4721 24.3087 58.8833 23.5873C60.1927 21.2971 60.7894 18.5275 59.902 16.0137H59.9012ZM21.7995 44.8721C20.9472 44.6301 20.0437 44.3194 19.2555 44.0202C18.7221 43.8179 18.2414 43.6209 17.8645 43.4545C16.771 42.9713 15.7859 42.4522 14.8794 41.8979C10.8864 39.4581 8.41952 36.3397 5.00338 32.635C3.4193 30.9173 1.68109 29.6669 0.907368 27.3103C0.581549 26.3164 -0.00980881 24.3873 1.55443 24.3934C2.92333 24.3987 6.45927 25.7774 7.88387 26.3187C9.95858 27.1057 13.5136 28.4211 14.9489 30.0814C15.8729 31.1517 16.0583 32.3998 16.7367 33.5755C17.3799 34.6908 18.3162 35.6672 19.3646 36.4061C19.8461 36.7451 20.3329 36.8489 20.7022 37.3405C21.0112 37.7527 21.1936 38.2581 21.2852 38.7619C21.4271 39.5421 21.3752 40.3429 21.3958 41.1353C21.4118 41.7643 21.4988 42.3606 21.6995 42.9575C21.8704 43.4652 21.8071 43.853 21.7766 44.3965C21.7674 44.566 21.7766 44.7232 21.8002 44.8713L21.7995 44.8721ZM41.0259 42.9125C38.6185 44.0957 36.0287 44.9103 33.3985 45.2523C33.3374 44.7668 33.2344 44.2935 33.02 43.8247C32.5736 42.8476 31.9105 42.1682 31.1437 41.4391C31.0407 41.3407 30.9377 41.2422 30.8354 41.1437C32.5599 41.4162 34.2989 41.8132 35.9837 41.9689C36.3186 42.0002 36.617 42.0163 36.8863 42.0193C38.7726 42.0384 39.2472 41.3964 41.1281 40.5132C42.2971 39.9643 43.3264 39.9223 44.5221 39.594C45.6117 39.294 46.5144 38.7177 47.5567 38.3604C45.6583 40.178 43.4333 41.7292 41.0259 42.9125Z" fill="#444444"/>
</g>
<g clip-path="url(#clip1_141_335)">
<path d="M36.7555 17.5588L36.4164 18.0012L36.8602 17.6632L36.9907 18.6383L37.1212 17.6632L37.565 18.0012L37.2259 17.5588L38.2041 17.4287L37.2259 17.2987L37.565 16.8563L37.1212 17.1943L36.9907 16.2191L36.8602 17.1943L36.4164 16.8563L36.7555 17.2987L35.7773 17.4287L36.7555 17.5588Z" fill="#444444"/>
<path d="M32.4811 19.5878L32.0021 20.2132L32.6295 19.735L32.8139 21.1128L32.9983 19.735L33.6264 20.2132L33.1467 19.5878L34.5288 19.4032L33.1467 19.2193L33.6264 18.5939L32.9983 19.0721L32.8139 17.6935L32.6295 19.0721L32.0021 18.5939L32.4811 19.2193L31.0989 19.4032L32.4811 19.5878Z" fill="#444444"/>
<path d="M28.9504 16.0299L28.3464 16.8173L29.1363 16.2153L29.3692 17.9514L29.602 16.2153L30.3927 16.8173L29.7879 16.0299L31.5294 15.7978L29.7879 15.5657L30.3927 14.7775L29.602 15.3803L29.3692 13.6442L29.1363 15.3803L28.3464 14.7775L28.9504 15.5657L27.2089 15.7978L28.9504 16.0299Z" fill="#444444"/>
<path d="M10.1437 13.2221L9.76401 13.7182L10.2609 13.3397L10.4078 14.4316L10.5539 13.3397L11.0516 13.7182L10.6711 13.2221L11.7665 13.0764L10.6711 12.9308L11.0516 12.4346L10.5539 12.8139L10.4078 11.7212L10.2609 12.8139L9.76401 12.4346L10.1437 12.9308L9.04834 13.0764L10.1437 13.2221Z" fill="#444444"/>
<path d="M14.0424 7.43896L13.5174 8.12359L14.2042 7.60019L14.4065 9.10886L14.6081 7.60019L15.2956 8.12359L14.7706 7.43896L16.284 7.23724L14.7706 7.03551L15.2956 6.35088L14.6081 6.87428L14.4065 5.36562L14.2042 6.87428L13.5174 6.35088L14.0424 7.03551L12.5291 7.23724L14.0424 7.43896Z" fill="#444444"/>
<path d="M20.3632 3.59448L19.4529 4.78225L20.6436 3.87487L20.9944 6.49031L21.3445 3.87487L22.5359 4.78225L21.6257 3.59448L24.2493 3.24554L21.6257 2.89583L22.5359 1.70806L21.3445 2.61544L20.9944 0L20.6436 2.61544L19.4529 1.70806L20.3632 2.89583L17.7388 3.24554L20.3632 3.59448Z" fill="#444444"/>
<path d="M19.9764 13.6645L18.6013 15.4574L20.3998 14.0866L20.9295 18.037L21.4593 14.0866L23.2578 15.4574L21.8827 13.6645L25.8455 13.1364L21.8827 12.6083L23.2578 10.8154L21.4593 12.1862L20.9295 8.23575L20.3998 12.1862L18.6013 10.8154L19.9764 12.6083L16.0136 13.1364L19.9764 13.6645Z" fill="#444444"/>
</g>
<defs>
<clipPath id="clip0_141_335">
<rect width="60.3222" height="45.5262" fill="white" transform="translate(0 14.5779)"/>
</clipPath>
<clipPath id="clip1_141_335">
<rect width="29.1557" height="21.1128" fill="white" transform="translate(9.04834)"/>
</clipPath>
</defs>
</svg>
