<svg width="56" height="69" viewBox="0 0 56 69" fill="none" xmlns="http://www.w3.org/2000/svg">
<g clip-path="url(#clip0_98_4320)">
<path d="M26 55.9277C11.4695 54.9022 0 42.7915 0 28C0 26.8954 0.89543 26 2 26C3.10457 26 4 26.8954 4 28C4 41.2548 14.7452 52 28 52C41.2548 52 52 41.2548 52 28C52 26.8954 52.8954 26 54 26C55.1046 26 56 26.8954 56 28C56 42.7915 44.5305 54.9022 30 55.9277V63.9873C30.8151 64.0772 31.6264 64.2198 32.4268 64.4199L34.9854 65.0596C36.0568 65.3276 36.7083 66.4138 36.4404 67.4854C36.1724 68.5568 35.0862 69.2083 34.0146 68.9404L31.4561 68.3008C30.3215 68.0171 29.1608 67.875 28 67.875C26.8392 67.875 25.6785 68.0171 24.5439 68.3008L21.9854 68.9404C20.9138 69.2083 19.8276 68.5568 19.5596 67.4854C19.2917 66.4138 19.9432 65.3276 21.0146 65.0596L23.5732 64.4199C24.3736 64.2198 25.1849 64.0772 26 63.9873V55.9277ZM39 15C39 8.92487 34.0751 4 28 4C21.9249 4 17 8.92487 17 15V28C17 34.0751 21.9249 39 28 39C34.0751 39 39 34.0751 39 28V15ZM43 28C43 36.2843 36.2843 43 28 43C19.7157 43 13 36.2843 13 28V15C13 6.71573 19.7157 0 28 0C36.2843 0 43 6.71573 43 15V28Z" fill="#E7EBED"/>
</g>
<defs>
<clipPath id="clip0_98_4320">
<rect width="56" height="69.0006" fill="white"/>
</clipPath>
</defs>
</svg>
