<svg width="20" height="20" viewBox="0 0 20 20" fill="none" xmlns="http://www.w3.org/2000/svg">
<g clip-path="url(#clip0_98_3935)">
<path d="M1.58816 6.11939L2.31432 6.30697L1.58816 6.11939ZM5.08797 2.82533L5.22923 3.56191L5.08797 2.82533ZM7.15262 11.5436L6.94102 10.8241L7.15262 11.5436ZM8.25935 12.6503L7.53981 12.4387L8.25935 12.6503ZM13.6836 18.2148L13.8712 18.941L13.6836 18.2148ZM16.9776 14.715L16.2411 14.5737L16.9776 14.715ZM18.7323 5.56593L19.4688 5.70719L18.7323 5.56593ZM14.237 1.07069L14.0958 0.334112L14.237 1.07069ZM18.7323 5.56593L17.9957 5.42466L16.2411 14.5737L16.9776 14.715L17.7142 14.8563L19.4688 5.70719L18.7323 5.56593ZM5.08797 2.82533L5.22923 3.56191L14.3783 1.80726L14.237 1.07069L14.0958 0.334112L4.9467 2.08876L5.08797 2.82533ZM1.58816 6.11939L2.31432 6.30697C2.67583 4.90754 3.81435 3.83326 5.22923 3.56191L5.08797 2.82533L4.9467 2.08876C2.95786 2.47018 1.36732 3.97563 0.861993 5.9318L1.58816 6.11939ZM7.15262 11.5436L6.94102 10.8241C4.18861 11.6335 1.59175 9.10409 2.31432 6.30697L1.58816 6.11939L0.861993 5.9318C-0.146915 9.83738 3.47512 13.4068 7.36422 12.2631L7.15262 11.5436ZM8.25935 12.6503L8.97888 12.8619C9.34541 11.6155 8.1874 10.4575 6.94102 10.8241L7.15262 11.5436L7.36422 12.2631C7.47161 12.2315 7.5714 12.3313 7.53981 12.4387L8.25935 12.6503ZM13.6836 18.2148L13.496 17.4887C10.6989 18.2112 8.16947 15.6144 8.97888 12.8619L8.25935 12.6503L7.53981 12.4387C6.39614 16.3278 9.96556 19.9499 13.8712 18.941L13.6836 18.2148ZM16.9776 14.715L16.2411 14.5737C15.9697 15.9886 14.8954 17.1272 13.496 17.4887L13.6836 18.2148L13.8712 18.941C15.8274 18.4357 17.3328 16.8451 17.7142 14.8563L16.9776 14.715ZM18.7323 5.56593L19.4688 5.70719C20.08 2.52059 17.2823 -0.277027 14.0958 0.334112L14.237 1.07069L14.3783 1.80726C16.5236 1.39582 18.4071 3.2793 17.9957 5.42466L18.7323 5.56593Z" fill="#F2F4F5"/>
</g>
<defs>
<clipPath id="clip0_98_3935">
<rect width="20" height="20" fill="white"/>
</clipPath>
</defs>
</svg>
